<?xml version="1.0" standalone="no"?>
<!DOCTYPE svg PUBLIC "-//W3C//DTD SVG 20010904//EN"
 "http://www.w3.org/TR/2001/REC-SVG-20010904/DTD/svg10.dtd">
<svg version="1.0" xmlns="http://www.w3.org/2000/svg"
 width="128.000000pt" height="128.000000pt" viewBox="0 0 128.000000 128.000000"
 preserveAspectRatio="xMidYMid meet">
<metadata>
Created by potrace 1.14, written by Peter Selinger 2001-2017
</metadata>
<g transform="translate(0.000000,128.000000) scale(0.100000,-0.100000)"
fill="#000000" stroke="none">
<path d="M835 1085 c-30 -11 -94 -15 -255 -15 -233 0 -267 -7 -317 -61 -48
-53 -52 -79 -53 -362 -2 -294 -2 -294 67 -368 62 -66 87 -72 353 -74 286 -2
322 4 371 56 61 66 69 109 69 378 0 347 -13 401 -104 442 -49 22 -78 23 -131
4z m29 -121 c20 -8 21 -43 1 -50 -24 -10 -47 14 -34 37 11 21 11 21 33 13z
m94 -3 c20 -12 10 -46 -14 -49 -25 -4 -40 24 -23 44 13 16 19 17 37 5z m-300
-69 c3 -40 2 -43 -20 -40 -17 2 -24 11 -26 31 -5 39 5 59 25 55 13 -2 19 -15
21 -46z m55 -227 c-32 -35 -66 -64 -77 -65 -24 0 -146 118 -146 142 0 38 31
32 79 -16 26 -25 53 -46 62 -46 8 0 41 27 74 60 l60 61 3 -36 c3 -31 -4 -43
-55 -100z m-278 -20 c0 -16 -8 -21 -39 -23 -43 -4 -62 8 -52 33 4 12 16 15 48
13 35 -2 43 -7 43 -23z m492 14 c21 -21 3 -39 -37 -39 -41 0 -55 11 -46 35 6
18 67 20 83 4z m-269 -248 c3 -39 2 -42 -20 -39 -18 2 -24 10 -26 37 -3 33 11
54 33 48 6 -2 11 -23 13 -46z"/>
</g>
</svg>
